<?xml version="1.0" encoding="UTF-8"?>
<svg xmlns="http://www.w3.org/2000/svg" xmlns:xlink="http://www.w3.org/1999/xlink" width="20px" height="20px" viewBox="0 0 20 20" version="1.1">
<g id="surface1">
<path style=" stroke:none;fill-rule:nonzero;fill:rgb(0%,0%,0%);fill-opacity:1;" d="M 7.464844 13.472656 L 13.757812 13.472656 L 13.757812 9.699219 C 13.757812 9.613281 13.824219 9.546875 13.910156 9.546875 C 13.992188 9.546875 14.0625 9.613281 14.0625 9.699219 L 14.0625 13.625 C 14.0625 13.710938 13.992188 13.777344 13.910156 13.777344 L 12.835938 13.777344 L 12.835938 14.847656 C 12.835938 14.933594 12.769531 15 12.6875 15 L 11.027344 15 C 10.945312 15 10.878906 14.933594 10.878906 14.847656 C 10.878906 14.765625 10.945312 14.699219 11.027344 14.699219 L 12.535156 14.699219 L 12.535156 13.777344 L 7.3125 13.777344 C 7.230469 13.777344 7.164062 13.710938 7.164062 13.625 L 7.164062 6.527344 L 6.242188 6.527344 L 6.242188 9.242188 C 6.242188 9.328125 6.175781 9.394531 6.089844 9.394531 C 6.007812 9.394531 5.9375 9.328125 5.9375 9.242188 L 5.9375 6.375 C 5.9375 6.289062 6.007812 6.222656 6.089844 6.222656 L 7.164062 6.222656 L 7.164062 5.152344 C 7.164062 5.066406 7.230469 5 7.3125 5 L 11.710938 5 C 11.738281 5 11.761719 5.007812 11.785156 5.019531 L 11.789062 5.019531 L 11.792969 5.023438 L 11.808594 5.035156 L 14.015625 7.238281 C 14.042969 7.265625 14.0625 7.304688 14.0625 7.347656 L 14.0625 8.636719 C 14.0625 8.71875 13.992188 8.789062 13.910156 8.789062 C 13.824219 8.789062 13.757812 8.71875 13.757812 8.636719 L 13.757812 7.5 L 11.710938 7.5 C 11.628906 7.5 11.558594 7.433594 11.558594 7.347656 L 11.558594 5.300781 L 7.464844 5.300781 Z M 11.863281 5.515625 L 11.863281 7.199219 L 13.542969 7.199219 Z M 8.699219 10.765625 C 8.617188 10.765625 8.546875 10.699219 8.546875 10.613281 C 8.546875 10.53125 8.617188 10.464844 8.699219 10.464844 L 12.523438 10.464844 C 12.609375 10.464844 12.675781 10.53125 12.675781 10.613281 C 12.675781 10.699219 12.609375 10.765625 12.523438 10.765625 Z M 8.699219 9.539062 C 8.617188 9.539062 8.546875 9.472656 8.546875 9.386719 C 8.546875 9.304688 8.617188 9.238281 8.699219 9.238281 L 12.523438 9.238281 C 12.609375 9.238281 12.675781 9.304688 12.675781 9.386719 C 12.675781 9.472656 12.609375 9.539062 12.523438 9.539062 Z M 8.699219 8.3125 C 8.617188 8.3125 8.546875 8.246094 8.546875 8.160156 C 8.546875 8.078125 8.617188 8.007812 8.699219 8.007812 L 12.523438 8.007812 C 12.609375 8.007812 12.675781 8.078125 12.675781 8.160156 C 12.675781 8.246094 12.609375 8.3125 12.523438 8.3125 Z M 8.699219 7.085938 C 8.617188 7.085938 8.546875 7.019531 8.546875 6.933594 C 8.546875 6.851562 8.617188 6.78125 8.699219 6.78125 L 10.730469 6.78125 C 10.816406 6.78125 10.882812 6.851562 10.882812 6.933594 C 10.882812 7.019531 10.816406 7.085938 10.730469 7.085938 Z M 8.699219 11.992188 C 8.617188 11.992188 8.546875 11.925781 8.546875 11.84375 C 8.546875 11.757812 8.617188 11.691406 8.699219 11.691406 L 12.523438 11.691406 C 12.609375 11.691406 12.675781 11.757812 12.675781 11.84375 C 12.675781 11.925781 12.609375 11.992188 12.523438 11.992188 Z M 5.9375 10.304688 C 5.9375 10.21875 6.007812 10.152344 6.089844 10.152344 C 6.175781 10.152344 6.242188 10.21875 6.242188 10.304688 L 6.242188 14.699219 L 9.96875 14.699219 C 10.050781 14.699219 10.121094 14.765625 10.121094 14.847656 C 10.121094 14.933594 10.050781 15 9.96875 15 L 6.089844 15 C 6.007812 15 5.9375 14.933594 5.9375 14.847656 L 5.9375 10.304688 "/>
</g>
</svg>
